<svg width="234" height="69" viewBox="0 0 234 69" fill="none" xmlns="http://www.w3.org/2000/svg">
<mask id="mask0_281_14388" style="mask-type:alpha" maskUnits="userSpaceOnUse" x="3" y="0" width="252" height="69">
<path d="M17.9292 7.21316C19.1692 2.93991 23.0835 0 27.5331 0L244.686 0C251.347 0 256.146 6.38976 254.29 12.7868L240.071 61.7868C238.831 66.0601 234.916 69 230.467 69H13.3143C6.65336 69 1.85417 62.6102 3.71047 56.2132L17.9292 7.21316Z" fill="#FF6666"/>
</mask>
<g mask="url(#mask0_281_14388)">
<mask id="mask1_281_14388" style="mask-type:luminance" maskUnits="userSpaceOnUse" x="36" y="-21" width="188" height="202">
<path d="M130.592 126.709C158.073 143.952 189.001 161.022 223.278 180.335H223.602V144.01C135.25 76.046 118.308 66.041 103.035 43.9153L223.602 137.7V135.457C190.789 107.164 160.957 82.1309 134.648 57.9301C102.467 32.5444 70.079 6.49077 37.3394 -20.6984C28.7871 2.19376 94.8363 104.275 130.592 126.709Z" fill="white"/>
</mask>
<g mask="url(#mask1_281_14388)">
<path d="M322.882 64.0989L141.428 276.544L-70.4927 95.5367L110.962 -116.908L322.882 64.0989Z" fill="url(#paint0_linear_281_14388)"/>
</g>
<mask id="mask2_281_14388" style="mask-type:luminance" maskUnits="userSpaceOnUse" x="143" y="-2" width="81" height="91">
<path d="M223.604 88.7088V79.7235C196.224 52.6496 170.069 26.2926 143.903 -1.84668C171.038 31.7713 197.575 61.2564 223.604 88.7088Z" fill="white"/>
</mask>
<g mask="url(#mask2_281_14388)">
<path d="M268.324 36.3505L189.985 128.069L99.1816 50.5117L177.521 -41.2065L268.324 36.3505Z" fill="url(#paint1_linear_281_14388)"/>
</g>
<mask id="mask3_281_14388" style="mask-type:luminance" maskUnits="userSpaceOnUse" x="126" y="-151" width="98" height="212">
<path d="M126.682 -151C130.106 -104.761 143.88 -47.2173 172.16 -7.24069C187.512 14.4592 204.825 36.7323 223.602 60.3559V23.7478C222.254 21.8392 220.946 19.9685 219.681 18.1356C161.358 -65.8642 136.717 -185.614 178.786 -113.142L213.188 -53.8738C211.403 -57.3069 209.561 -60.7813 207.855 -64.1576C203.947 -71.8939 200.67 -80.4423 197.945 -89.5361C195.296 -98.3712 193.17 -107.723 191.509 -117.365C185.401 -128.579 179.363 -139.792 173.409 -151H126.682Z" fill="white"/>
</mask>
<g mask="url(#mask3_281_14388)">
<path d="M345.074 -81.8622L182.72 108.22L5.20947 -43.3968L167.563 -233.478L345.074 -81.8622Z" fill="url(#paint2_linear_281_14388)"/>
</g>
<mask id="mask4_281_14388" style="mask-type:luminance" maskUnits="userSpaceOnUse" x="64" y="-127" width="160" height="258">
<path d="M64.6145 -120.151C62.5617 -80.872 102.825 22.039 134.505 51.9461C150.726 67.2583 168.452 82.8055 187.453 99.1781C199.022 109.146 211.086 119.449 223.601 130.203V102.837C208.103 88.2624 194.389 75.4404 183.976 65.161C140.579 22.3173 82.225 -89.8006 122.541 -43.2231L223.602 73.5302V70.8373C203.011 45.0859 183.978 21.1462 166.911 -1.96967C164.992 -4.56847 163.021 -7.18841 161.154 -9.76829C158.917 -12.8586 156.951 -15.8565 154.872 -18.8939C125.567 -53.3428 95.878 -89.0942 65.5574 -126.97C65.0553 -124.994 64.7481 -122.701 64.6145 -120.151Z" fill="white"/>
</mask>
<g mask="url(#mask4_281_14388)">
<path d="M350.606 -18.492L155.673 209.734L-64.4443 21.7256L130.489 -206.5L350.606 -18.492Z" fill="url(#paint3_linear_281_14388)"/>
</g>
<path d="M157.404 213.252C188.639 232.85 224.326 252.224 264.323 274.923C264.855 273.877 265.419 272.871 266.035 271.95C267.837 274.415 269.733 276.672 271.57 279.061C273.87 282.051 276.151 285.085 278.501 287.965C280.646 290.596 282.839 293.118 285.026 295.665C283.943 293.667 282.909 291.669 281.948 289.675C280.934 287.565 279.979 285.462 279.097 283.364C273.535 270.128 270.559 257.177 269.618 245.373C164.4 163.909 146.167 154.1 129.846 130.458L269.309 238.939L269.304 238.379C228.981 203.181 192.734 173.241 161.461 144.472C129.28 119.087 96.8909 93.0331 64.1524 65.844C55.6001 88.7361 121.649 190.819 157.404 213.252Z" stroke="#FF4040" stroke-width="1.5" stroke-miterlimit="10"/>
<path d="M251.946 148.825C261.955 161.407 272.396 174.423 283.188 187.932C288.097 194.077 293.077 200.338 298.128 206.711C298.109 206.18 298.064 205.63 298.053 205.103C298.02 203.699 298.048 202.341 298.064 200.975C298.168 192.75 299.122 185.206 300.756 178.453C278.802 148.763 260.199 124.527 246.494 104.68C188.171 20.6787 163.53 -99.0719 205.599 -26.6L240.002 32.6692C238.216 29.236 236.374 25.7617 234.669 22.3853C230.76 14.649 227.482 6.10062 224.758 -2.99266C222.109 -11.8282 219.984 -21.1803 218.322 -30.8219C198.8 -66.6657 180.001 -102.483 162.336 -138.256C159.546 -135.192 157.298 -129.572 155.666 -122.021C146.725 -80.6287 156.455 19.1959 198.973 79.3022C214.743 101.591 232.578 124.484 251.946 148.825Z" stroke="#FF4040" stroke-width="1.5" stroke-miterlimit="10"/>
<path d="M308.67 158.598C272.843 104.469 241.564 57.3535 217.851 18.3577C240.818 61.099 270.308 111.646 304.088 167.889C305.444 164.49 306.974 161.375 308.67 158.598Z" stroke="#FF4040" stroke-width="1.5" stroke-miterlimit="10"/>
<path d="M161.317 138.489C177.539 153.801 195.265 169.348 214.265 185.72C231.268 200.371 249.341 215.746 268.346 232.212L271.298 235.254L271.429 233.814C272.084 222.749 276.405 213.779 276.405 213.779L271.824 209.589L271.808 209.599C247.643 186.598 225.789 166.513 210.788 151.703C167.392 108.86 109.038 -3.25757 149.354 43.3193L278.154 192.119C246.77 152.63 218.218 117.751 193.724 84.5733C191.804 81.974 189.833 79.354 187.966 76.7741C185.73 73.6833 183.764 70.686 181.685 67.648C152.38 33.1991 122.691 -2.55236 92.3699 -40.4283C91.8679 -38.4518 91.5606 -36.1592 91.427 -33.6088C89.3737 5.67095 129.638 108.583 161.317 138.489Z" stroke="#FF4040" stroke-width="1.5" stroke-miterlimit="10"/>
</g>
<defs>
<linearGradient id="paint0_linear_281_14388" x1="330.03" y1="-159.434" x2="51.3791" y2="166.807" gradientUnits="userSpaceOnUse">
<stop stop-color="white"/>
<stop offset="1" stop-color="white" stop-opacity="0"/>
</linearGradient>
<linearGradient id="paint1_linear_281_14388" x1="345.288" y1="-146.473" x2="66.6366" y2="179.768" gradientUnits="userSpaceOnUse">
<stop stop-color="white"/>
<stop offset="1" stop-color="white" stop-opacity="0"/>
</linearGradient>
<linearGradient id="paint2_linear_281_14388" x1="287.993" y1="-195.003" x2="9.34139" y2="131.238" gradientUnits="userSpaceOnUse">
<stop stop-color="white"/>
<stop offset="1" stop-color="white" stop-opacity="0"/>
</linearGradient>
<linearGradient id="paint3_linear_281_14388" x1="301.371" y1="-183.527" x2="22.7201" y2="142.715" gradientUnits="userSpaceOnUse">
<stop stop-color="white"/>
<stop offset="1" stop-color="white" stop-opacity="0"/>
</linearGradient>
</defs>
</svg>
