<svg width="251" height="300" viewBox="0 0 251 300" fill="none" xmlns="http://www.w3.org/2000/svg">
<mask id="mask0_286_16807" style="mask-type:alpha" maskUnits="userSpaceOnUse" x="0" y="0" width="251" height="300">
<rect width="251" height="300" fill="#D9D9D9"/>
</mask>
<g mask="url(#mask0_286_16807)">
<mask id="mask1_286_16807" style="mask-type:luminance" maskUnits="userSpaceOnUse" x="81" y="106" width="181" height="194">
<path d="M171.774 248.019C198.142 264.563 227.818 280.942 260.706 299.473H261.017V264.62C176.244 199.409 159.988 189.809 145.334 168.58L261.017 258.565V256.413C229.533 229.266 200.909 205.247 175.666 182.027C144.788 157.669 113.712 132.671 82.299 106.583C74.0931 128.548 137.467 226.495 171.774 248.019Z" fill="white"/>
</mask>
<g mask="url(#mask1_286_16807)">
<path d="M356.274 187.946L182.17 391.785L-21.166 218.11L152.939 14.2709L356.274 187.946Z" fill="url(#paint0_linear_286_16807)"/>
</g>
<mask id="mask2_286_16807" style="mask-type:luminance" maskUnits="userSpaceOnUse" x="184" y="124" width="78" height="88">
<path d="M261.02 211.559V202.937C234.75 176.96 209.653 151.671 184.548 124.671C210.583 156.928 236.046 185.218 261.02 211.559Z" fill="white"/>
</mask>
<g mask="url(#mask2_286_16807)">
<path d="M303.928 161.321L228.762 249.324L141.637 174.909L216.804 86.9059L303.928 161.321Z" fill="url(#paint1_linear_286_16807)"/>
</g>
<mask id="mask3_286_16807" style="mask-type:luminance" maskUnits="userSpaceOnUse" x="168" y="-19" width="94" height="204">
<path d="M168.021 -18.4401C171.307 25.9259 184.523 81.1386 211.657 119.496C226.388 140.317 242.999 161.688 261.016 184.354V149.229C259.722 147.398 258.468 145.603 257.253 143.844C201.293 63.2471 177.651 -51.6523 218.015 17.884L251.024 74.7518C249.311 71.4577 247.544 68.1241 245.907 64.8845C242.157 57.4616 239.012 49.2595 236.398 40.534C233.857 32.0569 231.817 23.0836 230.223 13.8326C224.362 3.07289 218.569 -7.68575 212.856 -18.4401H168.021Z" fill="white"/>
</mask>
<g mask="url(#mask3_286_16807)">
<path d="M377.568 47.8971L221.79 230.279L51.4702 84.8044L207.248 -97.5772L377.568 47.8971Z" fill="url(#paint2_linear_286_16807)"/>
</g>
<mask id="mask4_286_16807" style="mask-type:luminance" maskUnits="userSpaceOnUse" x="229" y="61" width="33" height="57">
<path d="M261.019 117.073V110.585C249.529 92.8183 239.047 76.271 229.773 61.0204C239.117 78.4088 249.588 97.1453 261.019 117.073Z" fill="white"/>
</mask>
<g mask="url(#mask4_286_16807)">
<path d="M288.699 84.6638L247.838 132.503L202.091 93.4293L242.952 45.5898L288.699 84.6638Z" fill="url(#paint3_linear_286_16807)"/>
</g>
<mask id="mask5_286_16807" style="mask-type:luminance" maskUnits="userSpaceOnUse" x="94" y="220" width="154" height="80">
<path d="M150.741 299.473H217.057C187.491 284.006 167.028 271.903 164.177 266.338C186.172 277.383 208.162 288.426 230.156 299.473H247.23C196.669 274.239 145.881 248.279 94.5244 220.553C97.9771 243.508 123.3 274.951 150.741 299.473Z" fill="white"/>
</mask>
<g mask="url(#mask5_286_16807)">
<path d="M286.204 253.842L182.817 374.886L55.5503 266.184L158.937 145.139L286.204 253.842Z" fill="url(#paint4_linear_286_16807)"/>
</g>
<mask id="mask6_286_16807" style="mask-type:luminance" maskUnits="userSpaceOnUse" x="108" y="4" width="154" height="248">
<path d="M108.47 11.1595C106.5 48.8471 145.133 147.589 175.529 176.285C191.093 190.977 208.101 205.894 226.332 221.604C237.433 231.168 249.008 241.054 261.017 251.372V225.115C246.146 211.13 232.987 198.828 222.996 188.965C181.357 147.857 125.367 40.2802 164.05 84.9709L261.017 196.995V194.411C241.261 169.703 222.998 146.733 206.623 124.553C204.781 122.06 202.89 119.546 201.098 117.071C198.952 114.106 197.066 111.229 195.071 108.315C166.954 75.2612 138.467 40.9579 109.375 4.61621C108.893 6.51212 108.598 8.71245 108.47 11.1595Z" fill="white"/>
</mask>
<g mask="url(#mask6_286_16807)">
<path d="M382.878 108.7L195.841 327.681L-15.3604 147.289L171.677 -71.692L382.878 108.7Z" fill="url(#paint5_linear_286_16807)"/>
</g>
<mask id="mask7_286_16807" style="mask-type:luminance" maskUnits="userSpaceOnUse" x="236" y="-19" width="26" height="101">
<path d="M236.453 -18.4402C238.16 3.20581 241.353 24.3418 245.706 42.0176C248.774 54.4799 252.406 65.2604 256.516 73.235C257.985 76.0831 259.486 78.9494 261.012 81.8318V14.3298C258.076 1.84769 256.402 -9.13846 255.741 -18.4402H236.453Z" fill="white"/>
</mask>
<g mask="url(#mask7_286_16807)">
<path d="M310.534 23.8553L250.655 93.9608L186.935 39.5363L246.814 -30.5692L310.534 23.8553Z" fill="url(#paint6_linear_286_16807)"/>
</g>
<mask id="mask8_286_16807" style="mask-type:luminance" maskUnits="userSpaceOnUse" x="-189" y="-19" width="451" height="319">
<path d="M261.016 -18.4402H-188.604V299.473H261.016V-18.4402Z" fill="white"/>
</mask>
<g mask="url(#mask8_286_16807)">
<path d="M197.5 331.057C227.47 349.861 261.711 368.45 300.088 390.23C300.599 389.227 301.139 388.261 301.731 387.378C303.46 389.742 305.279 391.908 307.041 394.2C309.248 397.069 311.436 399.98 313.692 402.744C315.749 405.268 317.854 407.688 319.952 410.131C318.913 408.214 317.921 406.298 316.999 404.384C316.026 402.36 315.11 400.341 314.264 398.329C308.926 385.629 306.071 373.203 305.169 361.877C204.212 283.713 186.718 274.301 171.059 251.617L304.872 355.703L304.867 355.166C266.178 321.393 231.399 292.666 201.392 265.063C170.515 240.707 139.438 215.708 108.026 189.62C99.8197 211.585 163.193 309.533 197.5 331.057Z" stroke="#35007C" stroke-width="1.5" stroke-miterlimit="10"/>
</g>
<mask id="mask9_286_16807" style="mask-type:luminance" maskUnits="userSpaceOnUse" x="-189" y="-19" width="451" height="319">
<path d="M261.016 -18.4402H-188.604V299.473H261.016V-18.4402Z" fill="white"/>
</mask>
<g mask="url(#mask9_286_16807)">
<path d="M210.27 207.709C246.267 252.307 281.173 289.328 315.2 324.088C316.341 322.189 315.994 322.422 317.334 321.009C318.936 326.486 329.624 338.449 333.37 342.526C333.79 343.001 334.219 343.471 334.671 343.926C334.187 341.332 333.766 338.773 333.446 336.269C328.358 329.755 323.332 323.365 318.376 317.109C280.22 279.635 245.257 245.334 210.27 207.709Z" stroke="#35007C" stroke-width="1.5" stroke-miterlimit="10"/>
</g>
<mask id="mask10_286_16807" style="mask-type:luminance" maskUnits="userSpaceOnUse" x="-189" y="-19" width="451" height="411">
<path d="M261.016 -18.4402H-188.604V392H261.016V-18.4402Z" fill="white"/>
</mask>
<g mask="url(#mask10_286_16807)">
<path d="M288.212 269.24C297.815 281.312 307.833 293.801 318.189 306.762C322.899 312.658 327.676 318.666 332.523 324.781C332.505 324.271 332.462 323.744 332.451 323.238C332.419 321.891 332.446 320.588 332.462 319.278C332.561 311.386 333.477 304.147 335.045 297.667C313.98 269.181 296.13 245.926 282.981 226.883C227.02 146.284 203.378 31.3844 243.742 100.921L276.752 157.789C275.038 154.495 273.271 151.161 271.635 147.922C267.884 140.499 264.739 132.297 262.125 123.572C259.584 115.094 257.544 106.121 255.95 96.8698C237.218 62.4779 219.181 28.1117 202.232 -6.21289C199.555 -3.27289 197.398 2.12005 195.832 9.36511C187.253 49.0805 196.589 144.862 237.385 202.533C252.515 223.919 269.628 245.885 288.212 269.24Z" stroke="#35007C" stroke-width="1.5" stroke-miterlimit="10"/>
</g>
<mask id="mask11_286_16807" style="mask-type:luminance" maskUnits="userSpaceOnUse" x="-189" y="-19" width="451" height="319">
<path d="M261.016 -18.4402H-188.604V299.473H261.016V-18.4402Z" fill="white"/>
</mask>
<g mask="url(#mask11_286_16807)">
<path d="M201.254 259.322C216.818 274.014 233.826 288.931 252.057 304.641C268.371 318.698 285.712 333.449 303.947 349.249L306.779 352.168L306.905 350.786C307.534 340.169 311.68 331.563 311.68 331.563L307.284 327.542L307.268 327.552C284.082 305.482 263.114 286.211 248.721 272.001C207.082 230.893 151.092 123.318 189.775 168.008L313.358 310.78C283.245 272.89 255.85 239.424 232.347 207.591C230.506 205.097 228.615 202.583 226.823 200.107C224.677 197.142 222.791 194.266 220.796 191.351C192.678 158.297 164.192 123.994 135.099 87.6525C134.617 89.5489 134.323 91.7487 134.194 94.1958C132.224 131.884 170.858 230.627 201.254 259.322Z" stroke="#35007C" stroke-width="1.5" stroke-miterlimit="10"/>
</g>
</g>
<defs>
<linearGradient id="paint0_linear_286_16807" x1="363.133" y1="-26.5328" x2="95.7691" y2="286.493" gradientUnits="userSpaceOnUse">
<stop stop-color="white"/>
<stop offset="1" stop-color="#3E0092" stop-opacity="0"/>
</linearGradient>
<linearGradient id="paint1_linear_286_16807" x1="377.774" y1="-14.0969" x2="110.41" y2="298.929" gradientUnits="userSpaceOnUse">
<stop stop-color="white"/>
<stop offset="1" stop-color="#3E0092" stop-opacity="0"/>
</linearGradient>
<linearGradient id="paint2_linear_286_16807" x1="322.799" y1="-60.6611" x2="55.4347" y2="252.365" gradientUnits="userSpaceOnUse">
<stop stop-color="white"/>
<stop offset="1" stop-color="#3E0092" stop-opacity="0"/>
</linearGradient>
<linearGradient id="paint3_linear_286_16807" x1="351.826" y1="-35.791" x2="84.4625" y2="277.235" gradientUnits="userSpaceOnUse">
<stop stop-color="white"/>
<stop offset="1" stop-color="#3E0092" stop-opacity="0"/>
</linearGradient>
<linearGradient id="paint4_linear_286_16807" x1="393.491" y1="-0.466778" x2="126.127" y2="312.559" gradientUnits="userSpaceOnUse">
<stop stop-color="white"/>
<stop offset="1" stop-color="#3E0092" stop-opacity="0.5"/>
</linearGradient>
<linearGradient id="paint5_linear_286_16807" x1="335.637" y1="-49.6492" x2="68.2733" y2="263.377" gradientUnits="userSpaceOnUse">
<stop stop-color="white"/>
<stop offset="1" stop-color="#3E0092" stop-opacity="0"/>
</linearGradient>
<linearGradient id="paint6_linear_286_16807" x1="325.69" y1="-58.5002" x2="58.326" y2="254.526" gradientUnits="userSpaceOnUse">
<stop stop-color="white"/>
<stop offset="1" stop-color="#3E0092" stop-opacity="0"/>
</linearGradient>
</defs>
</svg>
